<svg width="160" height="40" viewBox="0 0 160 40" fill="none" xmlns="http://www.w3.org/2000/svg">
<path d="M58.6127 28.3648V11.5282C58.6127 9.62923 59.673 8.54063 61.4827 8.54063H71.6818C73.2264 8.54063 74.2239 9.38155 74.2239 10.8432C74.2239 12.3049 73.1942 13.1458 71.6818 13.1458H64.3359V18.2494H70.9478C72.3974 18.2494 73.3336 19.0582 73.3336 20.4434C73.3336 21.8286 72.4296 22.6221 70.9478 22.6221H64.3359V28.3648C64.3359 30.2637 63.2908 31.3371 61.4827 31.3371C59.6746 31.3371 58.6127 30.2637 58.6127 28.3648Z" fill="black"/>
<path d="M91.7843 28.3648V11.1704C91.7843 9.27146 92.8446 8.19815 94.6543 8.19815C96.464 8.19815 97.5075 9.27146 97.5075 11.1704V28.3648C97.5075 30.2637 96.4624 31.3371 94.6543 31.3371C92.8462 31.3371 91.7843 30.2637 91.7843 28.3648Z" fill="black"/>
<path d="M116.239 11.5282C116.239 9.62923 117.299 8.54063 119.109 8.54063H125.377C132.176 8.54063 136.169 12.4776 136.169 19.6361C136.169 26.7946 132.161 30.9961 125.377 30.9961H119.109C117.299 30.9961 116.239 29.9075 116.239 28.0086V11.5282ZM124.63 26.3894C128.356 26.3894 130.353 24.1327 130.353 19.6514C130.353 15.4346 128.247 13.1473 124.63 13.1473H121.963V26.3894H124.63Z" fill="black"/>
<path d="M154.277 28.3648V11.1704C154.277 9.27146 155.337 8.19815 157.147 8.19815C158.956 8.19815 160 9.27146 160 11.1704V28.3648C160 30.2637 158.955 31.3371 157.147 31.3371C155.339 31.3371 154.277 30.2637 154.277 28.3648Z" fill="black"/>
<path d="M25.6081 0H14.4804C6.4831 0 0 6.46878 0 14.4484V25.5516C0 33.5312 6.4831 40 14.4804 40H25.6081C33.6054 40 40.0885 33.5312 40.0885 25.5516V14.4484C40.0885 6.46878 33.6054 0 25.6081 0Z" fill="#FC365B"/>
<path d="M29.9966 5.59284C31.3006 5.59284 32.3564 6.64322 32.3564 7.93976V11.1475C32.3564 12.444 31.2991 13.4944 29.9966 13.4944H18.0384C16.7344 13.4944 15.6787 14.5448 15.6787 15.8413V17.2494C15.6787 18.546 16.736 19.5964 18.0384 19.5964H23.7034C25.0074 19.5964 26.0632 20.6467 26.0632 21.9433V25.151C26.0632 26.4475 25.0059 27.4979 23.7034 27.4979H18.0384C16.7344 27.4979 15.6787 28.5483 15.6787 29.8448V31.7223C15.6787 33.0189 14.6214 34.0693 13.3189 34.0693H10.0934C8.78937 34.0693 7.73361 33.0189 7.73361 31.7223V15.8398C7.73361 14.5432 8.79091 13.4929 10.0934 13.4929H13.2408C14.5448 13.4929 15.6005 12.4425 15.6005 11.1459V7.93823C15.6005 6.64169 16.6578 5.59132 17.9603 5.59132L29.9966 5.59284Z" fill="white"/>
</svg>
